<svg width="28" height="28" viewBox="0 0 28 28" fill="none" xmlns="http://www.w3.org/2000/svg">
<g id="Icon">
<path id="Icon_2" fill-rule="evenodd" clip-rule="evenodd" d="M17.2672 15.8672H16.5299L16.2686 15.6152C17.3886 14.3086 17.9672 12.5259 17.6499 10.6312C17.2112 8.03656 15.0459 5.96456 12.4326 5.64723C8.48456 5.16189 5.16189 8.48456 5.64723 12.4326C5.96456 15.0459 8.03656 17.2112 10.6312 17.6499C12.5259 17.9672 14.3086 17.3886 15.6152 16.2686L15.8672 16.5299V17.2672L19.8339 21.2339C20.2166 21.6166 20.8419 21.6166 21.2246 21.2339C21.6072 20.8512 21.6072 20.2259 21.2246 19.8432L17.2672 15.8672ZM11.6672 15.8672C9.34323 15.8672 7.46723 13.9912 7.46723 11.6672C7.46723 9.34323 9.34323 7.46723 11.6672 7.46723C13.9912 7.46723 15.8672 9.34323 15.8672 11.6672C15.8672 13.9912 13.9912 15.8672 11.6672 15.8672Z" fill="white"/>
</g>
</svg>
